<svg id="svg" version="1.1" xmlns="http://www.w3.org/2000/svg" xmlns:xlink="http://www.w3.org/1999/xlink" width="400" height="400" viewBox="0, 0, 400,400"><g id="svgg"><path id="path0" d="M137.062 132.439 C 129.045 133.610,122.092 140.616,120.592 149.032 C 119.764 153.681,119.756 246.672,120.583 251.315 C 122.413 261.578,129.700 267.676,140.438 267.930 L 145.924 268.059 148.862 266.689 C 153.230 264.652,154.889 263.051,162.628 253.400 C 172.974 240.499,193.487 214.945,195.541 212.400 C 200.128 206.715,199.961 206.782,202.234 209.702 C 203.133 210.856,206.558 215.130,209.845 219.200 C 216.360 227.266,239.122 255.567,241.966 259.136 C 245.028 262.980,246.959 264.630,250.429 266.367 L 253.800 268.055 259.440 267.927 L 265.079 267.800 268.186 266.222 C 272.307 264.128,275.495 260.933,277.488 256.901 L 279.000 253.841 279.000 200.221 L 279.000 146.600 277.531 143.600 C 271.442 131.167,254.554 128.212,244.914 137.893 C 243.621 139.191,238.803 145.170,233.582 151.956 C 232.801 152.970,230.092 156.410,227.560 159.600 C 225.029 162.790,219.556 169.720,215.399 175.000 C 202.547 191.324,200.379 194.000,200.003 194.000 C 199.607 194.000,198.553 192.759,193.552 186.400 C 191.735 184.090,188.933 180.535,187.324 178.500 C 185.716 176.465,183.014 173.045,181.320 170.900 C 179.625 168.755,176.958 165.380,175.393 163.400 C 173.827 161.420,170.633 157.370,168.295 154.400 C 165.957 151.430,162.125 146.570,159.780 143.600 C 151.864 133.572,146.694 131.032,137.062 132.439 M145.800 140.979 C 148.529 142.303,149.691 143.430,154.074 149.000 C 160.852 157.616,166.279 164.501,170.623 170.000 C 172.969 172.970,176.521 177.470,178.515 180.000 C 180.509 182.530,183.775 186.670,185.773 189.200 C 194.085 199.727,194.380 200.124,194.388 200.800 C 194.392 201.130,192.859 203.290,190.981 205.600 C 189.103 207.910,187.082 210.430,186.489 211.200 C 183.409 215.199,179.904 219.200,179.480 219.202 C 179.216 219.202,173.600 213.739,167.000 207.061 C 154.137 194.046,153.118 193.231,147.659 191.584 C 142.332 189.977,135.392 190.919,130.663 193.891 C 127.807 195.686,127.956 196.953,128.084 171.907 C 128.214 146.745,128.096 147.796,131.170 144.295 C 134.766 140.199,141.193 138.742,145.800 140.979 M263.717 140.803 C 266.340 141.785,269.084 144.328,270.414 147.011 L 271.400 149.000 271.513 171.567 C 271.577 184.406,271.472 194.288,271.269 194.491 C 271.061 194.699,269.852 194.264,268.357 193.443 C 262.063 189.987,255.211 189.854,248.400 193.055 C 245.570 194.385,244.704 195.168,233.154 206.832 C 226.419 213.635,220.738 219.200,220.529 219.200 C 219.650 219.200,205.600 201.818,205.600 200.731 C 205.600 200.358,206.712 198.646,208.071 196.926 C 209.430 195.207,211.823 192.180,213.389 190.200 C 219.953 181.899,228.762 170.749,231.482 167.300 C 251.741 141.610,251.619 141.749,254.925 140.530 C 257.005 139.764,261.296 139.897,263.717 140.803 M147.800 199.976 C 150.779 201.450,174.000 224.408,174.000 225.880 C 174.000 226.370,171.841 229.403,168.886 233.064 C 166.074 236.549,160.477 243.497,156.449 248.505 C 148.571 258.299,147.488 259.266,143.305 260.239 C 137.888 261.498,131.886 258.506,129.312 253.264 L 128.200 251.000 128.068 231.800 C 127.976 218.409,128.077 211.786,128.403 209.908 C 129.970 200.876,139.626 195.932,147.800 199.976 M262.237 199.271 C 265.594 200.373,268.695 203.091,270.282 206.324 L 271.400 208.600 271.514 229.198 C 271.639 251.707,271.620 251.928,269.292 255.335 C 266.318 259.686,259.357 261.745,254.653 259.665 C 251.547 258.291,250.750 257.523,244.955 250.315 C 241.900 246.515,236.295 239.561,232.500 234.863 C 228.705 230.165,225.600 226.121,225.600 225.876 C 225.600 225.090,249.722 201.181,251.400 200.304 C 255.369 198.230,258.234 197.957,262.237 199.271 " stroke="none" fill="#ebebeb" fill-rule="evenodd"></path><path id="path1" d="M0.000 200.000 L 0.000 400.000 200.000 400.000 L 400.000 400.000 400.000 200.000 L 400.000 0.000 200.000 0.000 L 0.000 0.000 0.000 200.000 M149.809 133.204 C 154.070 135.367,157.647 139.123,166.000 150.204 C 166.550 150.934,169.250 154.352,172.000 157.800 C 174.750 161.248,177.450 164.668,178.000 165.399 C 178.550 166.131,181.983 170.480,185.629 175.065 C 189.275 179.649,193.098 184.480,194.126 185.800 C 200.487 193.972,199.680 193.524,202.256 190.308 C 204.739 187.208,213.694 175.873,226.200 159.999 C 249.023 131.031,248.128 131.800,259.021 131.800 L 265.041 131.800 268.139 133.331 C 273.740 136.099,277.694 140.694,279.362 146.373 C 280.333 149.680,280.333 250.720,279.362 254.027 C 277.680 259.753,273.586 264.518,268.114 267.119 L 265.000 268.600 259.000 268.587 C 249.888 268.566,247.299 267.035,239.077 256.805 C 236.834 254.015,231.760 247.727,227.800 242.832 C 223.840 237.936,220.150 233.338,219.600 232.613 C 219.050 231.889,215.720 227.742,212.200 223.399 C 208.680 219.056,204.627 214.041,203.194 212.255 C 199.751 207.966,200.229 207.788,193.916 215.714 C 190.899 219.501,184.869 227.026,180.516 232.436 C 176.162 237.846,169.363 246.306,165.407 251.236 C 152.497 267.324,150.434 268.803,140.913 268.798 C 131.820 268.793,125.463 264.928,121.563 257.030 L 119.800 253.460 119.800 200.230 L 119.800 147.000 121.240 144.000 C 123.962 138.328,128.543 134.123,133.935 132.345 C 138.064 130.984,146.314 131.431,149.809 133.204 M136.600 141.483 C 134.132 142.324,130.433 145.875,129.604 148.200 C 129.032 149.803,128.448 191.706,128.978 193.088 C 129.145 193.523,129.552 193.431,130.895 192.655 C 137.195 189.017,144.823 188.860,151.923 192.224 C 154.844 193.608,155.608 194.298,167.000 205.845 C 173.600 212.535,179.207 218.006,179.459 218.004 C 179.858 218.001,182.586 214.749,191.527 203.620 C 192.667 202.201,193.600 200.916,193.600 200.765 C 193.600 200.503,190.203 196.142,176.074 178.259 C 172.623 173.891,168.990 169.275,168.000 168.000 C 164.758 163.826,153.724 149.875,150.931 146.421 C 146.753 141.252,142.040 139.628,136.600 141.483 M255.336 141.350 C 252.213 142.372,251.227 143.428,240.031 157.741 C 239.024 159.028,237.107 161.458,235.771 163.141 C 229.511 171.025,222.906 179.398,222.000 180.598 C 220.047 183.185,212.622 192.623,211.420 194.044 C 207.085 199.175,206.281 200.422,206.726 201.320 C 207.353 202.588,219.721 217.707,220.284 217.895 C 220.544 217.981,226.211 212.572,232.878 205.873 C 244.131 194.568,245.215 193.590,248.000 192.242 C 254.871 188.916,260.983 188.898,267.906 192.186 C 270.155 193.254,270.882 193.451,271.042 193.034 C 271.157 192.735,271.194 182.885,271.125 171.145 L 271.000 149.800 270.077 147.946 C 267.271 142.304,260.997 139.497,255.336 141.350 M137.400 200.211 C 134.429 201.313,131.921 203.594,130.400 206.575 L 129.000 209.319 129.000 229.960 L 129.000 250.600 129.925 252.643 C 132.970 259.370,141.284 261.701,147.436 257.553 C 148.977 256.514,172.432 227.824,173.044 226.229 C 173.411 225.273,150.742 202.531,147.853 200.957 C 145.337 199.586,140.092 199.212,137.400 200.211 M254.397 199.974 C 253.846 200.141,252.766 200.596,251.997 200.983 C 250.365 201.806,226.800 225.125,226.800 225.918 C 226.800 226.386,232.169 233.213,246.927 251.514 C 253.692 259.903,257.927 261.572,264.330 258.372 C 270.880 255.099,271.000 254.591,271.000 230.192 L 271.000 209.783 269.724 207.192 C 266.772 201.196,260.338 198.167,254.397 199.974 " stroke="none" fill="#040404" fill-rule="evenodd"></path><path id="path2" d="M138.300 131.896 C 139.675 131.974,141.925 131.974,143.300 131.896 C 144.675 131.818,143.550 131.754,140.800 131.754 C 138.050 131.754,136.925 131.818,138.300 131.896 M256.716 131.897 C 258.099 131.975,260.259 131.974,261.516 131.895 C 262.772 131.816,261.640 131.752,259.000 131.753 C 256.360 131.753,255.332 131.818,256.716 131.897 M133.069 132.618 C 129.098 134.075,124.025 138.471,122.166 142.066 C 121.259 143.820,121.783 143.407,123.139 141.300 C 125.664 137.374,129.132 134.582,133.600 132.880 C 134.810 132.419,135.530 132.045,135.200 132.049 C 134.870 132.053,133.911 132.309,133.069 132.618 M147.800 132.706 C 153.418 134.732,153.117 134.408,173.600 160.400 C 175.940 163.370,180.483 169.130,183.695 173.200 C 186.907 177.270,191.732 183.390,194.417 186.800 C 197.103 190.210,199.592 193.041,199.950 193.092 C 200.376 193.152,203.428 189.571,208.800 182.707 C 213.310 176.945,219.520 169.047,222.600 165.156 C 225.680 161.264,229.100 156.932,230.200 155.529 C 231.300 154.125,234.090 150.567,236.400 147.621 C 244.818 136.887,247.886 133.998,252.314 132.636 C 253.351 132.317,253.840 132.045,253.400 132.032 C 252.222 131.997,248.903 133.658,246.462 135.505 C 244.387 137.075,241.730 140.287,226.200 159.999 C 201.529 191.313,200.340 192.800,199.966 192.800 C 199.599 192.800,199.862 193.125,187.274 177.141 C 183.351 172.159,179.704 167.545,179.170 166.889 C 178.637 166.233,177.448 164.730,176.528 163.548 C 175.609 162.367,172.909 158.941,170.528 155.935 C 168.148 152.929,164.400 148.161,162.200 145.340 C 155.325 136.522,151.076 132.803,147.190 132.201 C 146.060 132.025,146.174 132.120,147.800 132.706 M265.996 132.784 C 267.203 133.201,268.246 133.487,268.312 133.421 C 268.519 133.214,265.222 131.999,264.492 132.013 C 264.111 132.020,264.788 132.367,265.996 132.784 M268.800 133.736 C 268.800 133.835,269.700 134.494,270.801 135.201 C 273.603 136.998,276.291 140.113,277.879 143.400 C 278.623 144.940,279.114 145.750,278.970 145.200 C 278.356 142.848,276.135 139.445,273.805 137.287 C 271.596 135.241,268.800 133.257,268.800 133.736 M136.652 141.098 C 132.961 142.328,129.388 146.429,128.963 149.920 C 128.825 151.061,128.923 150.910,129.394 149.258 C 132.218 139.355,143.968 137.807,150.931 146.421 C 153.724 149.875,164.758 163.826,168.000 168.000 C 168.990 169.275,172.623 173.891,176.074 178.259 C 190.203 196.142,193.600 200.503,193.600 200.765 C 193.600 200.916,192.667 202.201,191.527 203.620 C 182.586 214.749,179.858 218.001,179.459 218.004 C 179.207 218.006,173.600 212.535,167.000 205.845 C 155.608 194.298,154.844 193.608,151.923 192.224 C 144.823 188.860,137.195 189.017,130.895 192.655 C 128.642 193.956,128.815 195.555,128.696 172.400 L 128.592 152.200 128.502 172.600 C 128.453 183.820,128.565 193.240,128.751 193.534 C 129.020 193.958,129.576 193.822,131.465 192.868 C 138.236 189.450,145.073 189.381,151.941 192.660 C 153.787 193.541,156.522 196.045,166.900 206.355 C 177.849 217.232,179.675 218.891,180.144 218.386 C 180.951 217.517,193.392 201.885,193.756 201.282 C 194.150 200.630,193.591 199.778,188.842 193.800 C 186.745 191.160,183.752 187.380,182.191 185.400 C 174.388 175.506,172.642 173.288,168.200 167.628 C 165.560 164.264,163.130 161.190,162.800 160.797 C 162.470 160.404,159.771 156.959,156.803 153.141 C 147.027 140.568,143.884 138.689,136.652 141.098 M255.743 140.756 C 252.674 141.550,250.578 143.542,244.679 151.269 C 243.928 152.253,243.023 153.406,242.669 153.829 C 242.314 154.253,238.549 159.010,234.302 164.400 C 230.055 169.790,224.165 177.260,221.212 181.000 C 208.516 197.082,206.000 200.352,206.000 200.773 C 206.000 201.018,207.332 202.880,208.961 204.909 C 216.792 214.670,219.718 218.224,220.140 218.488 C 220.423 218.665,225.376 214.024,233.000 206.439 C 247.317 192.194,248.586 191.293,255.600 190.380 C 260.068 189.799,268.312 191.767,270.018 193.821 C 270.520 194.427,271.200 194.248,271.200 193.510 C 271.200 193.266,271.096 193.171,270.968 193.298 C 270.841 193.426,269.440 192.915,267.857 192.163 C 260.985 188.900,254.853 188.924,248.000 192.242 C 245.215 193.590,244.131 194.568,232.878 205.873 C 226.211 212.572,220.544 217.981,220.284 217.895 C 219.721 217.707,207.353 202.588,206.726 201.320 C 206.281 200.422,207.085 199.175,211.420 194.044 C 212.622 192.623,220.047 183.185,222.000 180.598 C 222.985 179.293,231.029 169.103,235.771 163.152 C 237.107 161.476,240.000 157.796,242.200 154.976 C 252.691 141.524,253.331 140.992,259.000 141.010 C 265.375 141.030,269.943 144.811,270.827 150.800 L 271.093 152.600 271.147 151.058 C 271.367 144.691,262.767 138.939,255.743 140.756 M120.643 145.208 C 120.290 146.093,120.016 147.218,120.036 147.708 C 120.057 148.236,120.282 147.866,120.589 146.800 C 120.873 145.810,121.236 144.685,121.396 144.300 C 121.555 143.915,121.596 143.600,121.486 143.600 C 121.377 143.600,120.997 144.324,120.643 145.208 M279.472 148.200 C 279.599 149.300,279.769 150.275,279.851 150.367 C 280.132 150.682,279.920 148.199,279.580 147.200 C 279.351 146.526,279.316 146.851,279.472 148.200 M119.794 200.200 C 119.794 228.580,119.842 240.249,119.900 226.131 C 119.958 212.013,119.958 188.793,119.900 174.531 C 119.842 160.269,119.794 171.820,119.794 200.200 M136.076 200.425 C 132.304 202.310,129.385 206.043,128.964 209.520 C 128.799 210.886,128.826 210.859,129.312 209.172 C 131.633 201.127,140.754 197.095,147.868 200.967 C 150.742 202.531,173.410 225.277,173.044 226.229 C 172.432 227.824,148.977 256.514,147.436 257.553 C 140.483 262.241,131.316 258.698,129.201 250.506 L 128.812 249.000 128.978 250.480 C 129.769 257.560,139.064 262.246,145.787 258.954 C 148.608 257.573,149.444 256.655,160.689 242.600 C 165.969 236.000,171.040 229.700,171.956 228.600 C 172.873 227.500,173.573 226.289,173.511 225.910 C 173.265 224.384,149.962 201.570,147.400 200.347 C 143.874 198.663,139.542 198.693,136.076 200.425 M253.800 199.694 C 253.140 199.932,251.954 200.531,251.165 201.027 C 249.255 202.226,226.630 225.057,226.493 225.923 C 226.398 226.529,229.784 230.912,242.376 246.482 C 244.385 248.967,247.058 252.280,248.315 253.845 C 250.350 256.379,253.637 259.200,254.553 259.200 C 254.739 259.200,254.021 258.615,252.959 257.900 C 251.865 257.164,249.488 254.691,247.479 252.200 C 232.816 234.019,226.800 226.371,226.800 225.913 C 226.800 224.974,250.426 201.772,252.400 200.773 C 258.297 197.788,265.801 200.206,269.244 206.200 C 270.573 208.514,270.793 208.338,269.569 205.939 C 266.887 200.683,259.352 197.699,253.800 199.694 M191.085 218.700 C 186.353 224.585,181.602 230.480,180.527 231.800 C 178.433 234.372,160.089 257.158,157.357 260.582 C 155.367 263.074,152.804 265.317,150.925 266.209 C 150.161 266.571,149.633 266.966,149.752 267.086 C 150.848 268.181,155.972 262.994,165.407 251.236 C 169.363 246.306,176.162 237.846,180.516 232.436 C 184.869 227.026,190.899 219.504,193.916 215.721 C 196.932 211.938,199.606 208.833,199.859 208.821 C 200.429 208.795,200.977 209.435,209.600 220.214 C 213.450 225.027,217.200 229.602,217.933 230.382 C 218.666 231.162,214.997 226.445,209.780 219.900 C 204.562 213.355,200.157 208.000,199.991 208.000 C 199.825 208.000,195.817 212.815,191.085 218.700 M270.682 210.021 C 270.808 210.999,270.975 211.875,271.055 211.967 C 271.381 212.342,271.160 209.355,270.821 208.821 C 270.584 208.446,270.535 208.870,270.682 210.021 M128.584 230.000 C 128.584 240.010,128.636 244.105,128.700 239.100 C 128.763 234.095,128.763 225.905,128.700 220.900 C 128.636 215.895,128.584 219.990,128.584 230.000 M219.867 232.963 C 220.270 233.492,223.840 237.932,227.800 242.829 C 231.760 247.726,236.834 254.015,239.077 256.805 C 244.257 263.250,249.384 267.949,250.270 267.064 C 250.377 266.956,249.813 266.559,249.017 266.181 C 245.888 264.697,244.743 263.379,222.889 236.129 C 221.067 233.858,219.477 232.000,219.355 232.000 C 219.233 232.000,219.463 232.433,219.867 232.963 M270.864 249.504 C 270.593 255.035,264.673 259.824,258.459 259.542 C 256.706 259.462,255.481 259.530,255.736 259.693 C 260.484 262.713,271.801 255.183,271.088 249.477 L 270.928 248.200 270.864 249.504 M279.455 251.855 C 279.313 252.886,279.274 253.808,279.369 253.902 C 279.463 253.996,279.665 253.239,279.818 252.218 C 279.971 251.198,280.010 250.276,279.904 250.171 C 279.798 250.065,279.596 250.823,279.455 251.855 M120.046 252.800 C 120.032 253.350,120.379 254.520,120.817 255.400 C 121.255 256.280,121.499 256.640,121.359 256.200 C 121.220 255.760,120.873 254.590,120.589 253.600 C 120.228 252.345,120.064 252.103,120.046 252.800 M277.812 257.076 C 273.816 266.249,261.756 270.974,251.400 267.423 C 250.960 267.273,251.140 267.476,251.800 267.875 C 252.817 268.490,253.913 268.600,259.000 268.600 L 265.000 268.600 268.114 267.119 C 272.338 265.112,275.939 261.643,277.881 257.715 C 278.675 256.108,279.244 254.711,279.145 254.612 C 279.046 254.512,278.446 255.621,277.812 257.076 M122.050 258.100 C 123.851 261.489,128.314 265.873,130.869 266.764 C 132.459 267.319,132.276 266.969,130.546 266.147 C 128.547 265.199,124.734 261.590,123.193 259.189 C 121.883 257.148,121.196 256.494,122.050 258.100 M135.276 268.460 C 135.784 268.603,138.270 268.720,140.800 268.720 C 143.330 268.720,145.816 268.603,146.324 268.460 C 146.832 268.317,144.346 268.200,140.800 268.200 C 137.254 268.200,134.768 268.317,135.276 268.460 " stroke="none" fill="#555555" fill-rule="evenodd"></path><path id="path3" d="M131.781 144.100 L 130.200 145.800 131.900 144.219 C 133.481 142.748,133.784 142.400,133.481 142.400 C 133.416 142.400,132.651 143.165,131.781 144.100 M279.794 200.200 C 279.794 227.700,279.842 238.891,279.900 225.069 C 279.958 211.247,279.958 188.747,279.900 175.069 C 279.842 161.391,279.794 172.700,279.794 200.200 M271.386 173.000 C 271.386 184.220,271.437 188.868,271.500 183.328 C 271.562 177.788,271.562 168.608,271.500 162.928 C 271.437 157.248,271.386 161.780,271.386 173.000 M140.900 199.087 C 141.505 199.178,142.495 199.178,143.100 199.087 C 143.705 198.995,143.210 198.920,142.000 198.920 C 140.790 198.920,140.295 198.995,140.900 199.087 M256.900 199.087 C 257.505 199.178,258.495 199.178,259.100 199.087 C 259.705 198.995,259.210 198.920,258.000 198.920 C 256.790 198.920,256.295 198.995,256.900 199.087 M153.200 205.000 C 153.946 205.770,154.647 206.400,154.757 206.400 C 154.867 206.400,154.346 205.770,153.600 205.000 C 152.854 204.230,152.153 203.600,152.043 203.600 C 151.933 203.600,152.454 204.230,153.200 205.000 M160.200 212.000 C 163.054 214.860,165.478 217.200,165.588 217.200 C 165.698 217.200,163.454 214.860,160.600 212.000 C 157.746 209.140,155.322 206.800,155.212 206.800 C 155.102 206.800,157.346 209.140,160.200 212.000 M238.195 213.300 L 231.800 219.800 238.300 213.405 C 241.875 209.887,244.800 206.962,244.800 206.905 C 244.800 206.619,244.137 207.261,238.195 213.300 M271.384 230.200 C 271.384 240.100,271.436 244.093,271.500 239.073 C 271.563 234.053,271.563 225.953,271.500 221.073 C 271.436 216.193,271.384 220.300,271.384 230.200 M177.200 217.000 C 177.946 217.770,178.647 218.400,178.757 218.400 C 178.867 218.400,178.346 217.770,177.600 217.000 C 176.854 216.230,176.153 215.600,176.043 215.600 C 175.933 215.600,176.454 216.230,177.200 217.000 " stroke="none" fill="#7c7c7c" fill-rule="evenodd"></path><path id="path4" d="M137.105 132.283 C 137.602 132.379,138.322 132.375,138.705 132.275 C 139.087 132.175,138.680 132.096,137.800 132.101 C 136.920 132.105,136.607 132.187,137.105 132.283 M142.833 132.144 C 142.925 132.223,143.900 132.391,145.000 132.518 C 146.287 132.667,146.715 132.626,146.200 132.403 C 145.436 132.072,142.486 131.845,142.833 132.144 M253.800 132.403 C 253.285 132.626,253.713 132.667,255.000 132.518 C 256.100 132.391,257.075 132.223,257.167 132.144 C 257.514 131.845,254.564 132.072,253.800 132.403 M262.529 132.418 C 263.590 132.596,265.014 132.936,265.694 133.173 C 266.374 133.410,267.008 133.525,267.104 133.429 C 267.409 133.125,263.107 131.998,261.827 132.047 C 260.910 132.082,261.087 132.176,262.529 132.418 M131.364 133.987 C 127.464 135.944,121.587 142.062,121.604 144.146 C 121.606 144.396,122.174 143.610,122.867 142.400 C 124.706 139.186,128.252 135.902,131.684 134.232 C 133.288 133.452,134.404 132.810,134.164 132.807 C 133.924 132.803,132.664 133.334,131.364 133.987 M149.428 133.949 C 150.763 134.581,152.473 135.620,153.228 136.259 C 155.514 138.193,156.321 138.611,154.400 136.866 C 152.560 135.194,148.522 132.800,147.544 132.800 C 147.245 132.800,148.093 133.318,149.428 133.949 M248.378 134.755 C 247.400 135.390,245.970 136.481,245.200 137.179 C 244.412 137.894,244.953 137.607,246.438 136.524 C 247.889 135.466,249.419 134.386,249.838 134.124 C 250.257 133.861,250.500 133.636,250.378 133.624 C 250.256 133.611,249.356 134.120,248.378 134.755 M269.200 134.494 C 269.444 134.759,273.166 137.556,274.000 138.101 C 274.330 138.316,273.900 137.865,273.045 137.100 C 271.764 135.953,268.524 133.757,269.200 134.494 M156.988 140.100 C 157.563 140.815,159.841 143.695,162.050 146.500 C 164.259 149.305,166.157 151.600,166.267 151.600 C 166.488 151.600,165.594 150.429,160.080 143.500 C 158.024 140.915,156.251 138.800,156.141 138.800 C 156.032 138.800,156.413 139.385,156.988 140.100 M242.745 139.900 C 241.380 141.396,239.090 144.400,239.315 144.400 C 239.416 144.400,240.509 143.140,241.745 141.600 C 244.071 138.701,244.489 137.990,242.745 139.900 M136.670 140.581 C 135.829 140.881,135.019 141.261,134.870 141.427 C 134.722 141.592,134.960 141.584,135.400 141.410 C 135.840 141.235,137.100 140.862,138.200 140.580 C 139.371 140.280,139.785 140.061,139.200 140.052 C 138.650 140.043,137.512 140.281,136.670 140.581 M143.081 140.420 C 144.006 140.602,145.147 140.957,145.616 141.208 C 146.085 141.459,146.551 141.583,146.651 141.482 C 146.974 141.159,143.620 139.999,142.492 140.044 C 141.680 140.076,141.832 140.173,143.081 140.420 M255.400 140.419 C 254.842 140.671,255.085 140.707,256.200 140.538 C 257.080 140.404,257.875 140.228,257.967 140.147 C 258.310 139.844,256.168 140.071,255.400 140.419 M260.033 140.147 C 260.125 140.228,260.920 140.404,261.800 140.538 C 262.915 140.707,263.158 140.671,262.600 140.419 C 261.832 140.071,259.690 139.844,260.033 140.147 M264.600 141.466 C 265.260 141.815,266.157 142.393,266.593 142.750 C 267.342 143.364,267.355 143.360,266.822 142.674 C 266.257 141.946,264.320 140.786,263.720 140.816 C 263.544 140.825,263.940 141.117,264.600 141.466 M149.400 143.924 C 150.720 145.285,151.861 146.399,151.936 146.399 C 152.270 146.401,149.765 143.685,148.453 142.625 C 147.638 141.966,148.054 142.536,149.400 143.924 M131.578 143.900 L 130.200 145.400 131.700 144.022 C 132.525 143.263,133.200 142.588,133.200 142.522 C 133.200 142.216,132.862 142.504,131.578 143.900 M249.200 144.800 C 248.503 145.680,248.023 146.400,248.133 146.400 C 248.243 146.400,248.903 145.680,249.600 144.800 C 250.297 143.920,250.777 143.200,250.667 143.200 C 250.557 143.200,249.897 143.920,249.200 144.800 M268.400 144.400 C 268.870 145.060,269.344 145.600,269.454 145.600 C 269.564 145.600,269.270 145.060,268.800 144.400 C 268.330 143.740,267.856 143.200,267.746 143.200 C 267.636 143.200,267.930 143.740,268.400 144.400 M238.150 145.700 C 236.435 147.655,234.238 150.547,234.672 150.279 C 235.149 149.984,239.317 144.800,239.076 144.800 C 239.001 144.800,238.584 145.205,238.150 145.700 M129.381 146.837 C 129.029 147.518,128.812 148.145,128.899 148.232 C 128.986 148.319,129.356 147.762,129.722 146.995 C 130.544 145.270,130.259 145.138,129.381 146.837 M154.354 149.900 C 156.587 152.778,159.546 156.233,158.569 154.822 C 157.560 153.363,152.288 146.800,152.126 146.800 C 152.029 146.800,153.031 148.195,154.354 149.900 M128.257 150.300 C 127.707 153.626,127.970 194.413,128.542 194.633 C 129.109 194.851,132.178 193.245,131.840 192.907 C 131.733 192.800,131.082 193.114,130.392 193.606 C 128.333 195.072,128.354 195.315,128.481 171.261 C 128.546 158.907,128.579 148.800,128.552 148.800 C 128.526 148.800,128.393 149.475,128.257 150.300 M279.394 200.200 C 279.394 228.580,279.442 240.249,279.500 226.131 C 279.558 212.013,279.558 188.793,279.500 174.531 C 279.442 160.269,279.394 171.820,279.394 200.200 M120.093 150.400 C 120.093 151.170,120.175 151.485,120.276 151.100 C 120.376 150.715,120.376 150.085,120.276 149.700 C 120.175 149.315,120.093 149.630,120.093 150.400 M271.301 151.400 C 271.305 152.280,271.387 152.593,271.483 152.095 C 271.579 151.598,271.575 150.878,271.475 150.495 C 271.375 150.113,271.296 150.520,271.301 151.400 M231.161 154.500 C 229.561 156.535,227.987 158.515,227.664 158.900 C 227.341 159.285,227.174 159.600,227.294 159.600 C 227.414 159.600,228.911 157.845,230.620 155.700 C 234.651 150.642,234.533 150.800,234.284 150.800 C 234.167 150.800,232.762 152.465,231.161 154.500 M243.133 152.500 C 240.400 155.906,239.137 157.600,239.330 157.600 C 239.502 157.600,242.842 153.526,244.323 151.511 C 245.365 150.093,244.462 150.843,243.133 152.500 M167.051 152.900 C 167.486 153.395,168.836 155.060,170.050 156.600 C 171.263 158.140,173.571 161.065,175.177 163.100 C 176.783 165.135,178.180 166.800,178.282 166.800 C 178.489 166.800,177.758 165.847,171.293 157.700 C 168.805 154.565,166.655 152.000,166.515 152.000 C 166.375 152.000,166.616 152.405,167.051 152.900 M161.186 158.544 C 162.332 160.003,163.456 161.311,163.684 161.452 C 163.912 161.593,163.161 160.515,162.014 159.056 C 160.868 157.597,159.744 156.289,159.516 156.148 C 159.288 156.007,160.039 157.085,161.186 158.544 M238.159 158.900 C 236.407 160.921,235.887 161.600,236.090 161.600 C 236.207 161.600,236.967 160.790,237.779 159.800 C 239.281 157.966,239.579 157.263,238.159 158.900 M164.287 162.500 C 166.753 165.703,170.932 170.800,171.092 170.800 C 171.204 170.800,170.676 170.035,169.919 169.100 C 169.161 168.165,167.593 166.185,166.434 164.700 C 165.275 163.215,164.231 162.000,164.115 162.000 C 163.998 162.000,164.075 162.225,164.287 162.500 M221.556 166.700 C 219.519 169.285,217.234 172.165,216.478 173.100 C 215.722 174.035,215.202 174.800,215.322 174.800 C 215.442 174.800,217.562 172.235,220.034 169.100 C 222.505 165.965,224.797 163.085,225.126 162.700 C 225.455 162.315,225.619 162.000,225.492 162.000 C 225.364 162.000,223.593 164.115,221.556 166.700 M231.179 167.700 C 227.677 172.141,227.026 173.052,228.520 171.422 C 229.994 169.815,234.501 164.000,234.274 164.000 C 234.176 164.000,232.784 165.665,231.179 167.700 M180.386 169.744 C 181.532 171.203,182.656 172.511,182.884 172.652 C 183.112 172.793,182.361 171.715,181.214 170.256 C 180.068 168.797,178.944 167.489,178.716 167.348 C 178.488 167.207,179.239 168.285,180.386 169.744 M175.938 177.249 C 181.037 183.749,184.519 187.898,181.728 184.148 C 178.792 180.204,171.939 171.610,171.528 171.355 C 171.300 171.214,173.284 173.867,175.938 177.249 M183.669 173.900 C 183.994 174.285,185.574 176.265,187.179 178.300 C 188.784 180.335,190.193 182.000,190.310 182.000 C 190.428 182.000,190.257 181.685,189.931 181.300 C 189.606 180.915,188.026 178.935,186.421 176.900 C 184.816 174.865,183.407 173.200,183.290 173.200 C 183.172 173.200,183.343 173.515,183.669 173.900 M210.332 180.900 C 204.430 188.331,203.058 190.135,203.530 189.843 C 203.743 189.712,205.857 187.128,208.228 184.102 C 210.598 181.076,213.158 177.835,213.917 176.900 C 214.676 175.965,215.198 175.200,215.078 175.200 C 214.958 175.200,212.822 177.765,210.332 180.900 M219.161 182.900 C 215.683 187.323,215.017 188.262,216.520 186.622 C 218.038 184.967,222.498 179.200,222.261 179.200 C 222.156 179.200,220.762 180.865,219.161 182.900 M193.196 185.994 C 193.890 186.871,194.667 187.718,194.923 187.876 C 195.178 188.034,194.693 187.316,193.845 186.281 C 192.997 185.247,192.220 184.400,192.118 184.400 C 192.016 184.400,192.501 185.118,193.196 185.994 M187.235 191.614 C 188.603 193.382,189.919 194.946,190.161 195.091 C 190.684 195.404,190.605 195.295,187.421 191.300 C 186.150 189.705,185.029 188.400,184.929 188.400 C 184.830 188.400,185.868 189.846,187.235 191.614 M196.937 190.618 C 199.893 194.625,199.953 194.640,202.013 191.894 L 203.285 190.200 201.643 192.000 L 200.001 193.800 198.901 192.573 C 198.295 191.899,197.204 190.639,196.476 189.773 C 195.748 188.908,195.955 189.288,196.937 190.618 M214.150 189.300 C 212.435 191.255,210.238 194.147,210.672 193.879 C 211.149 193.584,215.317 188.400,215.076 188.400 C 215.001 188.400,214.584 188.805,214.150 189.300 M137.278 190.795 C 135.526 191.210,132.312 192.446,132.500 192.633 C 132.581 192.714,133.627 192.402,134.824 191.939 C 138.240 190.616,143.927 190.459,147.659 191.584 C 152.807 193.137,154.416 194.325,162.700 202.699 C 166.935 206.980,170.400 210.324,170.400 210.131 C 170.400 209.045,154.469 194.109,151.997 192.876 C 147.424 190.597,141.596 189.772,137.278 190.795 M253.676 190.740 C 253.168 190.883,255.114 191.000,258.000 191.000 C 260.886 191.000,262.832 190.883,262.324 190.740 C 261.816 190.597,259.870 190.480,258.000 190.480 C 256.130 190.480,254.184 190.597,253.676 190.740 M248.400 192.655 C 245.615 193.993,244.520 194.976,233.132 206.348 C 226.384 213.087,220.626 218.600,220.335 218.600 C 220.045 218.600,216.925 214.971,213.404 210.535 C 209.882 206.099,206.859 202.454,206.687 202.435 C 206.338 202.396,218.754 217.932,219.699 218.716 C 220.663 219.516,220.900 219.308,232.182 207.748 C 243.876 195.765,245.738 194.149,249.868 192.387 C 251.370 191.746,252.330 191.220,252.000 191.217 C 251.670 191.215,250.050 191.862,248.400 192.655 M268.323 193.414 C 270.881 194.837,271.637 194.899,271.554 193.676 C 271.512 193.067,271.489 193.069,271.324 193.700 C 271.096 194.572,271.317 194.615,268.764 193.207 C 267.574 192.551,266.420 192.013,266.200 192.012 C 265.980 192.010,266.936 192.641,268.323 193.414 M207.823 197.241 C 205.725 199.922,205.160 201.281,205.942 201.764 C 206.130 201.881,206.209 201.576,206.116 201.088 C 205.997 200.462,206.614 199.343,208.202 197.300 C 209.443 195.705,210.365 194.400,210.252 194.400 C 210.138 194.400,209.045 195.678,207.823 197.241 M191.768 197.300 C 192.609 198.345,193.377 199.200,193.475 199.200 C 193.792 199.200,192.117 197.026,191.163 196.200 C 190.655 195.760,190.928 196.255,191.768 197.300 M139.200 198.802 C 138.600 198.995,139.240 199.037,140.800 198.906 C 142.230 198.786,143.475 198.623,143.567 198.544 C 143.889 198.265,140.188 198.484,139.200 198.802 M254.600 198.961 C 253.720 199.240,252.280 199.844,251.400 200.304 C 249.723 201.181,225.600 225.089,225.600 225.875 C 225.600 226.333,230.673 232.800,231.032 232.800 C 231.142 232.800,230.055 231.342,228.616 229.560 C 227.177 227.778,226.000 226.144,226.000 225.928 C 226.000 225.712,231.351 220.141,237.892 213.548 C 251.861 199.465,252.522 198.995,258.344 199.006 C 260.191 199.010,261.274 198.893,260.751 198.746 C 259.211 198.315,256.320 198.415,254.600 198.961 M145.486 199.380 C 146.413 199.670,147.947 200.362,148.896 200.918 C 151.130 202.227,173.600 225.021,173.600 225.979 C 173.600 226.376,170.155 230.998,165.945 236.251 C 161.735 241.503,158.662 245.440,159.115 245.000 C 161.465 242.723,174.000 226.618,174.000 225.877 C 174.000 223.049,147.602 198.732,144.636 198.827 C 144.166 198.842,144.537 199.084,145.486 199.380 M135.800 199.877 C 133.844 200.929,132.028 202.434,131.119 203.758 C 130.541 204.599,130.875 204.377,132.152 203.073 C 133.190 202.012,134.975 200.709,136.120 200.176 C 137.264 199.644,137.930 199.213,137.600 199.220 C 137.270 199.227,136.460 199.522,135.800 199.877 M193.868 200.512 C 193.980 201.163,192.989 202.669,190.149 206.162 C 188.019 208.781,186.481 210.797,186.731 210.643 C 188.962 209.264,194.972 200.400,194.058 199.836 C 193.870 199.719,193.784 200.024,193.868 200.512 M264.562 200.524 C 266.277 201.597,268.206 203.503,269.270 205.178 C 269.892 206.156,270.400 206.768,270.400 206.538 C 270.400 205.332,265.315 199.964,264.228 200.024 C 263.993 200.036,264.143 200.261,264.562 200.524 M129.386 206.427 C 129.037 207.102,128.807 207.814,128.876 208.009 C 128.944 208.204,129.302 207.651,129.670 206.782 C 130.465 204.906,130.287 204.684,129.386 206.427 M199.753 207.886 C 200.168 207.992,200.946 208.556,201.482 209.140 L 202.458 210.200 201.554 208.900 C 200.994 208.095,200.336 207.618,199.825 207.646 C 199.077 207.688,199.071 207.711,199.753 207.886 M197.941 209.500 C 195.888 211.737,182.381 228.799,182.685 228.770 C 182.989 228.741,199.368 208.400,199.088 208.400 C 199.012 208.400,198.496 208.895,197.941 209.500 M271.301 211.000 C 271.305 211.880,271.387 212.193,271.483 211.695 C 271.579 211.198,271.575 210.478,271.475 210.095 C 271.375 209.713,271.296 210.120,271.301 211.000 M171.108 211.000 C 171.684 212.089,178.984 219.200,179.526 219.200 C 179.765 219.200,181.185 217.715,182.682 215.900 C 186.234 211.594,186.537 211.200,186.293 211.200 C 186.180 211.200,184.712 212.910,183.031 215.000 C 179.293 219.647,179.896 219.684,174.861 214.500 C 172.564 212.135,170.875 210.560,171.108 211.000 M212.770 223.292 C 218.535 230.493,223.452 236.508,223.696 236.660 C 224.244 236.998,204.681 212.591,203.289 211.200 C 202.739 210.650,207.005 216.092,212.770 223.292 M128.129 230.000 C 128.110 240.670,128.208 249.933,128.347 250.585 C 128.584 251.696,128.525 220.773,128.277 213.800 C 128.214 212.040,128.147 219.330,128.129 230.000 M178.159 234.100 C 176.407 236.121,175.887 236.800,176.090 236.800 C 176.207 236.800,176.967 235.990,177.779 235.000 C 179.281 233.166,179.579 232.463,178.159 234.100 M225.287 238.984 C 226.009 239.966,226.747 240.776,226.927 240.784 C 227.107 240.793,226.590 239.990,225.779 239.000 C 223.883 236.686,223.590 236.677,225.287 238.984 M235.755 238.919 C 236.603 239.953,237.380 240.800,237.482 240.800 C 237.755 240.800,235.221 237.660,234.677 237.324 C 234.422 237.166,234.907 237.884,235.755 238.919 M173.359 240.100 C 171.607 242.121,171.087 242.800,171.290 242.800 C 171.407 242.800,172.167 241.990,172.979 241.000 C 174.481 239.166,174.779 238.463,173.359 240.100 M239.781 243.900 C 241.057 245.495,242.180 246.800,242.274 246.800 C 242.551 246.800,238.949 242.221,238.170 241.582 C 237.779 241.262,238.504 242.305,239.781 243.900 M170.119 244.100 C 168.459 245.922,157.530 259.690,157.950 259.431 C 158.422 259.139,171.318 243.200,171.083 243.200 C 171.004 243.200,170.570 243.605,170.119 244.100 M232.562 247.900 C 233.842 249.495,234.972 250.800,235.072 250.800 C 235.338 250.800,231.591 246.087,230.858 245.500 C 230.514 245.225,231.281 246.305,232.562 247.900 M155.762 248.900 C 154.481 250.495,153.714 251.575,154.058 251.300 C 154.791 250.713,158.538 246.000,158.272 246.000 C 158.172 246.000,157.042 247.305,155.762 248.900 M242.812 247.475 C 242.860 248.774,253.600 260.320,253.600 259.072 C 253.600 258.958,252.984 258.485,252.232 258.020 C 251.479 257.555,249.049 254.918,246.832 252.162 C 244.614 249.405,242.805 247.295,242.812 247.475 M271.293 249.200 C 271.293 249.970,271.375 250.285,271.476 249.900 C 271.576 249.515,271.576 248.885,271.476 248.500 C 271.375 248.115,271.293 248.430,271.293 249.200 M120.040 250.033 C 120.062 250.785,120.230 251.850,120.413 252.400 C 120.629 253.046,120.666 252.620,120.519 251.200 C 120.259 248.683,119.981 248.007,120.040 250.033 M236.555 252.919 C 237.403 253.953,238.180 254.800,238.282 254.800 C 238.555 254.800,236.021 251.660,235.477 251.324 C 235.222 251.166,235.707 251.884,236.555 252.919 M128.800 252.153 C 128.800 252.582,129.990 254.800,130.221 254.800 C 130.331 254.800,130.123 254.215,129.759 253.500 C 129.017 252.040,128.800 251.736,128.800 252.153 M151.755 253.881 C 150.907 254.916,150.422 255.634,150.677 255.476 C 151.221 255.140,153.755 252.000,153.482 252.000 C 153.380 252.000,152.603 252.847,151.755 253.881 M269.494 254.503 L 268.788 255.800 269.594 254.856 C 270.280 254.052,270.646 253.194,270.300 253.203 C 270.245 253.204,269.882 253.789,269.494 254.503 M131.488 256.423 C 132.196 257.188,133.366 258.133,134.088 258.524 C 135.354 259.210,135.365 259.209,134.404 258.517 C 133.856 258.123,132.686 257.178,131.804 256.417 L 130.200 255.034 131.488 256.423 M240.666 258.020 C 242.013 259.659,243.779 261.720,244.592 262.600 L 246.069 264.200 244.799 262.600 C 241.069 257.900,239.156 255.620,238.713 255.346 C 238.441 255.178,239.320 256.381,240.666 258.020 M121.600 256.153 C 121.600 256.582,122.790 258.800,123.021 258.800 C 123.131 258.800,122.923 258.215,122.559 257.500 C 121.817 256.040,121.600 255.736,121.600 256.153 M149.000 256.942 C 148.560 257.414,147.750 258.123,147.200 258.517 C 146.238 259.207,146.251 259.207,147.524 258.517 C 148.891 257.777,150.825 255.967,150.170 256.042 C 149.966 256.065,149.440 256.470,149.000 256.942 M275.483 260.200 C 274.869 260.970,274.489 261.600,274.639 261.600 C 274.936 261.600,275.774 260.612,276.421 259.500 C 277.057 258.407,276.703 258.671,275.483 260.200 M123.938 260.300 C 124.374 260.905,125.408 262.030,126.235 262.800 C 127.290 263.781,127.095 263.452,125.581 261.700 C 123.290 259.047,122.631 258.486,123.938 260.300 M152.800 264.483 C 152.030 265.146,151.760 265.491,152.200 265.251 C 153.409 264.590,154.563 263.629,154.371 263.443 C 154.277 263.352,153.570 263.820,152.800 264.483 M269.400 265.600 C 268.740 266.037,268.380 266.392,268.600 266.388 C 269.001 266.382,271.176 264.823,270.800 264.812 C 270.690 264.808,270.060 265.163,269.400 265.600 M130.400 265.796 C 130.400 266.070,132.849 267.284,133.032 267.101 C 133.119 267.014,132.562 266.644,131.795 266.278 C 131.028 265.912,130.400 265.695,130.400 265.796 M149.600 266.400 C 148.830 266.822,148.344 267.174,148.520 267.183 C 148.944 267.205,151.200 266.032,151.200 265.790 C 151.200 265.528,151.177 265.537,149.600 266.400 M248.800 265.796 C 248.800 266.070,251.249 267.284,251.432 267.101 C 251.519 267.014,250.962 266.644,250.195 266.278 C 249.428 265.912,248.800 265.695,248.800 265.796 M138.700 268.295 C 139.855 268.376,141.745 268.376,142.900 268.295 C 144.055 268.214,143.110 268.148,140.800 268.148 C 138.490 268.148,137.545 268.214,138.700 268.295 M256.915 268.296 C 258.188 268.376,260.168 268.375,261.315 268.294 C 262.462 268.214,261.420 268.149,259.000 268.150 C 256.580 268.151,255.642 268.216,256.915 268.296 " stroke="none" fill="#848484" fill-rule="evenodd"></path></g></svg>
